# Blender v3.2.1 OBJ File: 'trap.blend'
# www.blender.org
mtllib trap.mtl
o 立方体
v -0.829680 -0.797709 -0.682195
v -0.829680 -0.797709 0.682195
v -0.829680 0.797709 -0.682195
v -0.829680 0.797709 0.682195
v 0.829680 -0.797709 -0.682195
v 0.829680 -0.797709 0.682195
v 0.829680 0.797709 -0.682195
v 0.829680 0.797709 0.682195
v -0.572933 0.296650 -0.572933
v -0.609568 0.000000 -0.609568
v -0.572933 -0.296650 -0.572933
v -0.572933 -0.572933 -0.296650
v -0.609568 -0.609568 -0.000000
v -0.572933 -0.572933 0.296650
v -0.572933 -0.296650 0.572933
v -0.609568 -0.000000 0.609568
v -0.572933 0.296650 0.572933
v -0.572933 0.572933 0.296650
v -0.609568 0.609568 0.000000
v -0.572933 0.572933 -0.296650
v 0.296650 0.572933 -0.572933
v 0.000000 0.609568 -0.609568
v -0.296650 0.572933 -0.572933
v -0.296650 0.572933 0.572933
v -0.000000 0.609568 0.609568
v 0.296650 0.572933 0.572933
v 0.572933 0.572933 0.296650
v 0.609568 0.609568 0.000000
v 0.572933 0.572933 -0.296650
v 0.572933 -0.296650 -0.572933
v 0.609568 0.000000 -0.609568
v 0.572933 0.296650 -0.572933
v 0.572933 0.296650 0.572933
v 0.609568 -0.000000 0.609568
v 0.572933 -0.296650 0.572933
v 0.572933 -0.572933 0.296650
v 0.609568 -0.609568 -0.000000
v 0.572933 -0.572933 -0.296650
v -0.296650 -0.572933 -0.572933
v -0.000000 -0.609568 -0.609568
v 0.296650 -0.572933 -0.572933
v 0.296650 -0.572933 0.572933
v -0.000000 -0.609568 0.609568
v -0.296650 -0.572933 0.572933
v -0.728990 -0.316157 -0.316157
v -0.781829 -0.333140 -0.000000
v -0.728990 -0.316157 0.316157
v -0.781829 0.000000 -0.333140
v -1.222794 0.000000 0.000000
v -0.781829 -0.000000 0.333140
v -0.728990 0.316157 -0.316157
v -0.781829 0.333140 0.000000
v -0.728990 0.316157 0.316157
v -0.316157 0.728990 -0.316157
v -0.333140 0.781829 0.000000
v -0.316157 0.728990 0.316157
v 0.000000 0.781829 -0.333140
v 0.000000 1.153156 0.000000
v -0.000000 0.781829 0.333140
v 0.316157 0.728990 -0.316157
v 0.333140 0.781829 0.000000
v 0.316157 0.728990 0.316157
v 0.728990 0.316157 -0.316157
v 0.781829 0.333140 0.000000
v 0.728990 0.316157 0.316157
v 0.781829 -0.000000 -0.333140
v 1.222794 0.000000 0.000000
v 0.781829 -0.000000 0.333140
v 0.728990 -0.316157 -0.316157
v 0.781829 -0.333140 -0.000000
v 0.728990 -0.316157 0.316157
v 0.316157 -0.728990 -0.316157
v 0.333140 -0.781829 -0.000000
v 0.316157 -0.728990 0.316157
v -0.000000 -0.781829 -0.333141
v 0.000000 -1.153156 -0.000000
v 0.000000 -0.781829 0.333140
v -0.316157 -0.728990 -0.316157
v -0.333140 -0.781829 -0.000000
v -0.316157 -0.728990 0.316157
v -0.316157 0.316157 -0.728990
v -0.000000 0.333141 -0.781829
v 0.316157 0.316157 -0.728990
v -0.333140 0.000000 -0.781829
v 0.000000 0.000000 -0.839506
v 0.333140 0.000000 -0.781829
v -0.316157 -0.316157 -0.728990
v 0.000000 -0.333140 -0.781829
v 0.316157 -0.316157 -0.728990
v 0.316157 0.316157 0.728990
v 0.000000 0.333140 0.781829
v -0.316157 0.316157 0.728990
v 0.333140 -0.000000 0.781829
v -0.000000 -0.000000 0.839506
v -0.333140 -0.000000 0.781829
v 0.316157 -0.316157 0.728990
v -0.000000 -0.333141 0.781829
v -0.316157 -0.316157 0.728990
vt 0.500000 0.062500
vt 0.437500 0.125000
vt 0.437500 0.062500
vt 0.562500 0.125000
vt 0.500000 0.125000
vt 0.500000 0.187500
vt 0.437500 0.187500
vt 0.437500 0.000000
vt 0.375000 0.062500
vt 0.375000 0.000000
vt 0.562500 0.000000
vt 0.500000 0.000000
vt 0.625000 0.062500
vt 0.562500 0.062500
vt 0.625000 0.187500
vt 0.562500 0.187500
vt 0.562500 0.250000
vt 0.500000 0.250000
vt 0.437500 0.250000
vt 0.375000 0.187500
vt 0.375000 0.250000
vt 0.375000 0.125000
vt 0.500000 0.312500
vt 0.437500 0.375000
vt 0.437500 0.312500
vt 0.562500 0.375000
vt 0.500000 0.375000
vt 0.500000 0.437500
vt 0.437500 0.437500
vt 0.375000 0.312500
vt 0.625000 0.312500
vt 0.562500 0.312500
vt 0.625000 0.437500
vt 0.562500 0.437500
vt 0.562500 0.500000
vt 0.500000 0.500000
vt 0.437500 0.500000
vt 0.375000 0.437500
vt 0.375000 0.500000
vt 0.375000 0.375000
vt 0.500000 0.562500
vt 0.437500 0.625000
vt 0.437500 0.562500
vt 0.562500 0.625000
vt 0.500000 0.625000
vt 0.500000 0.687500
vt 0.437500 0.687500
vt 0.375000 0.562500
vt 0.625000 0.562500
vt 0.562500 0.562500
vt 0.625000 0.687500
vt 0.562500 0.687500
vt 0.562500 0.750000
vt 0.500000 0.750000
vt 0.437500 0.750000
vt 0.375000 0.687500
vt 0.375000 0.750000
vt 0.375000 0.625000
vt 0.500000 0.812500
vt 0.437500 0.875000
vt 0.437500 0.812500
vt 0.562500 0.875000
vt 0.500000 0.875000
vt 0.500000 0.937500
vt 0.437500 0.937500
vt 0.375000 0.812500
vt 0.625000 0.812500
vt 0.562500 0.812500
vt 0.625000 0.937500
vt 0.562500 0.937500
vt 0.562500 1.000000
vt 0.500000 1.000000
vt 0.437500 1.000000
vt 0.375000 0.937500
vt 0.375000 1.000000
vt 0.375000 0.875000
vt 0.187500 0.562500
vt 0.250000 0.625000
vt 0.187500 0.625000
vt 0.312500 0.562500
vt 0.250000 0.562500
vt 0.187500 0.687500
vt 0.312500 0.687500
vt 0.250000 0.687500
vt 0.187500 0.500000
vt 0.125000 0.562500
vt 0.125000 0.500000
vt 0.312500 0.500000
vt 0.250000 0.500000
vt 0.312500 0.625000
vt 0.312500 0.750000
vt 0.250000 0.750000
vt 0.187500 0.750000
vt 0.125000 0.687500
vt 0.125000 0.750000
vt 0.125000 0.625000
vt 0.687500 0.562500
vt 0.750000 0.625000
vt 0.687500 0.625000
vt 0.812500 0.562500
vt 0.750000 0.562500
vt 0.687500 0.687500
vt 0.812500 0.687500
vt 0.750000 0.687500
vt 0.687500 0.500000
vt 0.625000 0.500000
vt 0.812500 0.500000
vt 0.750000 0.500000
vt 0.875000 0.562500
vt 0.812500 0.625000
vt 0.875000 0.687500
vt 0.812500 0.750000
vt 0.750000 0.750000
vt 0.687500 0.750000
vt 0.625000 0.750000
vt 0.625000 0.625000
vt 0.625000 0.000000
vt 0.625000 0.125000
vt 0.625000 0.250000
vt 0.625000 0.375000
vt 0.625000 0.875000
vt 0.625000 1.000000
vt 0.875000 0.500000
vt 0.875000 0.625000
vt 0.875000 0.750000
vn -0.9702 -0.1714 -0.1714
vn -0.4712 -0.6237 0.6237
vn -0.9702 0.1714 -0.1714
vn -0.4712 0.6237 0.6237
vn -0.8594 0.3615 0.3615
vn -0.8367 -0.5213 -0.1678
vn -0.8367 -0.5214 0.1677
vn -0.7322 -0.4816 0.4816
vn -0.8367 -0.1678 0.5213
vn -0.8367 0.1678 0.5213
vn -0.7322 0.4816 0.4816
vn -0.8367 0.5214 0.1677
vn -0.8367 0.5213 -0.1678
vn -0.8594 -0.3615 0.3615
vn -0.8367 0.1677 -0.5214
vn -0.8367 -0.1677 -0.5214
vn -0.1714 0.9702 -0.1714
vn -0.5971 0.5357 0.5971
vn 0.1714 0.9702 -0.1714
vn 0.5971 0.5357 0.5971
vn 0.3136 0.8962 0.3136
vn -0.5213 0.8367 -0.1678
vn -0.5214 0.8367 0.1677
vn -0.4816 0.7322 0.4816
vn -0.1678 0.8367 0.5213
vn 0.1678 0.8367 0.5213
vn 0.4816 0.7322 0.4816
vn 0.5214 0.8367 0.1677
vn 0.5213 0.8367 -0.1678
vn -0.3136 0.8962 0.3136
vn 0.1677 0.8367 -0.5214
vn -0.1677 0.8367 -0.5214
vn 0.9702 0.1714 -0.1714
vn 0.4712 0.6237 0.6237
vn 0.9702 -0.1714 -0.1714
vn 0.4712 -0.6237 0.6237
vn 0.8594 -0.3615 0.3615
vn 0.8367 0.5213 -0.1678
vn 0.8367 0.5214 0.1677
vn 0.7322 0.4816 0.4816
vn 0.8367 0.1678 0.5213
vn 0.8367 -0.1678 0.5213
vn 0.7322 -0.4816 0.4816
vn 0.8367 -0.5214 0.1677
vn 0.8367 -0.5213 -0.1678
vn 0.8594 0.3615 0.3615
vn 0.8367 -0.1677 -0.5214
vn 0.8367 0.1677 -0.5214
vn 0.1714 -0.9702 -0.1714
vn 0.5971 -0.5357 0.5971
vn -0.1714 -0.9702 -0.1714
vn -0.5971 -0.5357 0.5971
vn -0.3136 -0.8962 0.3136
vn 0.5213 -0.8367 -0.1678
vn 0.5214 -0.8367 0.1677
vn 0.4816 -0.7322 0.4816
vn 0.1678 -0.8367 0.5213
vn -0.1678 -0.8367 0.5213
vn -0.4816 -0.7322 0.4816
vn -0.5214 -0.8367 0.1677
vn -0.5213 -0.8367 -0.1678
vn 0.3136 -0.8962 0.3136
vn -0.1677 -0.8367 -0.5214
vn 0.1677 -0.8367 -0.5214
vn -0.1681 0.1713 -0.9708
vn 0.1713 0.1681 -0.9708
vn -0.1681 -0.1713 -0.9708
vn 0.1713 -0.1681 -0.9708
vn 0.1413 -0.1413 -0.9798
vn -0.1678 0.5213 -0.8367
vn 0.1677 0.5214 -0.8367
vn 0.4816 0.4816 -0.7322
vn 0.5213 0.1678 -0.8367
vn 0.5213 -0.1678 -0.8367
vn 0.4816 -0.4816 -0.7322
vn 0.1677 -0.5214 -0.8367
vn -0.1678 -0.5213 -0.8367
vn 0.1413 0.1413 -0.9798
vn -0.5214 -0.1677 -0.8367
vn -0.5214 0.1677 -0.8367
vn 0.1681 0.1713 0.9708
vn -0.1713 0.1681 0.9708
vn 0.1681 -0.1713 0.9708
vn -0.1713 -0.1681 0.9708
vn -0.1413 -0.1413 0.9798
vn 0.1678 0.5213 0.8367
vn -0.1677 0.5214 0.8367
vn -0.4816 0.4816 0.7322
vn -0.5213 0.1678 0.8367
vn -0.5213 -0.1678 0.8367
vn -0.4816 -0.4816 0.7322
vn -0.1677 -0.5214 0.8367
vn 0.1678 -0.5213 0.8367
vn -0.1413 0.1413 0.9798
vn 0.5214 -0.1677 0.8367
vn 0.5214 0.1677 0.8367
vn -0.4712 -0.6237 -0.6237
vn -0.9702 -0.1714 0.1714
vn -0.4712 0.6237 -0.6237
vn -0.9702 0.1714 0.1714
vn -0.7322 -0.4816 -0.4816
vn -0.8367 -0.5214 -0.1677
vn -0.8367 -0.5213 0.1678
vn -0.8594 0.3615 -0.3615
vn -0.8367 -0.1677 0.5214
vn -0.8367 0.1677 0.5214
vn -0.8594 -0.3615 -0.3615
vn -0.8367 0.5213 0.1678
vn -0.8367 0.5214 -0.1677
vn -0.7322 0.4816 -0.4816
vn -0.8367 0.1678 -0.5213
vn -0.8367 -0.1678 -0.5213
vn -0.5971 0.5357 -0.5971
vn -0.1714 0.9702 0.1714
vn 0.5971 0.5357 -0.5971
vn 0.1714 0.9702 0.1714
vn -0.4816 0.7322 -0.4816
vn -0.5214 0.8367 -0.1677
vn -0.5213 0.8367 0.1678
vn 0.3136 0.8962 -0.3136
vn -0.1677 0.8367 0.5214
vn 0.1677 0.8367 0.5214
vn -0.3136 0.8962 -0.3136
vn 0.5213 0.8367 0.1678
vn 0.5214 0.8367 -0.1677
vn 0.4816 0.7322 -0.4816
vn 0.1678 0.8367 -0.5213
vn -0.1678 0.8367 -0.5213
vn 0.4712 0.6237 -0.6237
vn 0.9702 0.1714 0.1714
vn 0.4712 -0.6237 -0.6237
vn 0.9702 -0.1714 0.1714
vn 0.7322 0.4816 -0.4816
vn 0.8367 0.5214 -0.1677
vn 0.8367 0.5213 0.1678
vn 0.8594 -0.3615 -0.3615
vn 0.8367 0.1677 0.5214
vn 0.8367 -0.1677 0.5214
vn 0.8594 0.3615 -0.3615
vn 0.8367 -0.5213 0.1678
vn 0.8367 -0.5214 -0.1677
vn 0.7322 -0.4816 -0.4816
vn 0.8367 -0.1678 -0.5213
vn 0.8367 0.1678 -0.5213
vn 0.5971 -0.5357 -0.5971
vn 0.1714 -0.9702 0.1714
vn -0.5971 -0.5357 -0.5971
vn -0.1714 -0.9702 0.1714
vn 0.4816 -0.7322 -0.4816
vn 0.5214 -0.8367 -0.1677
vn 0.5213 -0.8367 0.1678
vn -0.3136 -0.8962 -0.3136
vn 0.1677 -0.8367 0.5214
vn -0.1677 -0.8367 0.5214
vn 0.3136 -0.8962 -0.3136
vn -0.5213 -0.8367 0.1678
vn -0.5214 -0.8367 -0.1677
vn -0.4816 -0.7322 -0.4816
vn -0.1678 -0.8367 -0.5213
vn 0.1678 -0.8367 -0.5213
vn -0.1713 0.1681 -0.9708
vn 0.1681 0.1713 -0.9708
vn -0.1713 -0.1681 -0.9708
vn 0.1681 -0.1713 -0.9708
vn -0.4816 0.4816 -0.7322
vn -0.1677 0.5214 -0.8367
vn 0.1678 0.5213 -0.8367
vn -0.1413 -0.1413 -0.9798
vn 0.5214 0.1677 -0.8367
vn 0.5214 -0.1677 -0.8367
vn -0.1413 0.1413 -0.9798
vn 0.1678 -0.5213 -0.8367
vn -0.1677 -0.5214 -0.8367
vn -0.4816 -0.4816 -0.7322
vn -0.5213 -0.1678 -0.8367
vn -0.5213 0.1678 -0.8367
vn 0.1713 0.1681 0.9708
vn -0.1681 0.1713 0.9708
vn 0.1713 -0.1681 0.9708
vn -0.1681 -0.1713 0.9708
vn 0.4816 0.4816 0.7322
vn 0.1677 0.5214 0.8367
vn -0.1678 0.5213 0.8367
vn 0.1413 -0.1413 0.9798
vn -0.5214 0.1677 0.8367
vn -0.5214 -0.1677 0.8367
vn 0.1413 0.1413 0.9798
vn -0.1678 -0.5213 0.8367
vn 0.1677 -0.5214 0.8367
vn 0.4816 -0.4816 0.7322
vn 0.5213 -0.1678 0.8367
vn 0.5213 0.1678 0.8367
usemtl マテリアル
s off
f 46/1/1 48/2/1 45/3/1
f 46/1/2 50/4/2 49/5/2
f 48/2/3 52/6/3 51/7/3
f 50/4/4 52/6/4 49/5/4
f 12/8/5 11/9/5 1/10/5
f 12/8/6 46/1/6 45/3/6
f 14/11/7 46/1/7 13/12/7
f 14/11/8 15/13/8 47/14/8
f 15/13/9 50/4/9 47/14/9
f 50/4/10 17/15/10 53/16/10
f 17/15/11 18/17/11 53/16/11
f 52/6/12 18/17/12 19/18/12
f 52/6/13 20/19/13 51/7/13
f 9/20/14 20/19/14 3/21/14
f 48/2/15 9/20/15 10/22/15
f 11/9/16 48/2/16 10/22/16
f 55/23/17 57/24/17 54/25/17
f 55/23/18 59/26/18 58/27/18
f 57/24/19 61/28/19 60/29/19
f 59/26/20 61/28/20 58/27/20
f 20/19/21 23/30/21 3/21/21
f 20/19/22 55/23/22 54/25/22
f 18/17/23 55/23/23 19/18/23
f 18/17/24 24/31/24 56/32/24
f 24/31/25 59/26/25 56/32/25
f 59/26/26 26/33/26 62/34/26
f 26/33/27 27/35/27 62/34/27
f 61/28/28 27/35/28 28/36/28
f 61/28/29 29/37/29 60/29/29
f 21/38/30 29/37/30 7/39/30
f 57/24/31 21/38/31 22/40/31
f 23/30/32 57/24/32 22/40/32
f 64/41/33 66/42/33 63/43/33
f 64/41/34 68/44/34 67/45/34
f 66/42/35 70/46/35 69/47/35
f 68/44/36 70/46/36 67/45/36
f 29/37/37 32/48/37 7/39/37
f 29/37/38 64/41/38 63/43/38
f 27/35/39 64/41/39 28/36/39
f 27/35/40 33/49/40 65/50/40
f 33/49/41 68/44/41 65/50/41
f 68/44/42 35/51/42 71/52/42
f 35/51/43 36/53/43 71/52/43
f 70/46/44 36/53/44 37/54/44
f 70/46/45 38/55/45 69/47/45
f 30/56/46 38/55/46 5/57/46
f 66/42/47 30/56/47 31/58/47
f 32/48/48 66/42/48 31/58/48
f 73/59/49 75/60/49 72/61/49
f 73/59/50 77/62/50 76/63/50
f 75/60/51 79/64/51 78/65/51
f 77/62/52 79/64/52 76/63/52
f 38/55/53 41/66/53 5/57/53
f 38/55/54 73/59/54 72/61/54
f 36/53/55 73/59/55 37/54/55
f 36/53/56 42/67/56 74/68/56
f 42/67/57 77/62/57 74/68/57
f 77/62/58 44/69/58 80/70/58
f 44/69/59 14/71/59 80/70/59
f 79/64/60 14/71/60 13/72/60
f 79/64/61 12/73/61 78/65/61
f 39/74/62 12/73/62 1/75/62
f 75/60/63 39/74/63 40/76/63
f 41/66/64 75/60/64 40/76/64
f 81/77/65 85/78/65 84/79/65
f 83/80/66 85/78/66 82/81/66
f 85/78/67 87/82/67 84/79/67
f 85/78/68 89/83/68 88/84/68
f 23/85/69 9/86/69 3/87/69
f 23/85/70 82/81/70 81/77/70
f 21/88/71 82/81/71 22/89/71
f 21/88/72 32/48/72 83/80/72
f 32/48/73 86/90/73 83/80/73
f 86/90/74 30/56/74 89/83/74
f 30/56/75 41/91/75 89/83/75
f 88/84/76 41/91/76 40/92/76
f 88/84/77 39/93/77 87/82/77
f 11/94/78 39/93/78 1/95/78
f 84/79/79 11/94/79 10/96/79
f 9/86/80 84/79/80 10/96/80
f 90/97/81 94/98/81 93/99/81
f 92/100/82 94/98/82 91/101/82
f 94/98/83 96/102/83 93/99/83
f 94/98/84 98/103/84 97/104/84
f 26/105/85 33/49/85 8/106/85
f 26/105/86 91/101/86 90/97/86
f 24/107/87 91/101/87 25/108/87
f 24/107/88 17/109/88 92/100/88
f 17/109/89 95/110/89 92/100/89
f 95/110/90 15/111/90 98/103/90
f 15/111/91 44/112/91 98/103/91
f 97/104/92 44/112/92 43/113/92
f 97/104/93 42/114/93 96/102/93
f 35/51/94 42/114/94 6/115/94
f 93/99/95 35/51/95 34/116/95
f 33/49/96 93/99/96 34/116/96
f 46/1/97 49/5/97 48/2/97
f 46/1/98 47/14/98 50/4/98
f 48/2/99 49/5/99 52/6/99
f 50/4/100 53/16/100 52/6/100
f 12/8/101 45/3/101 11/9/101
f 12/8/102 13/12/102 46/1/102
f 14/11/103 47/14/103 46/1/103
f 14/11/104 2/117/104 15/13/104
f 15/13/105 16/118/105 50/4/105
f 50/4/106 16/118/106 17/15/106
f 17/15/107 4/119/107 18/17/107
f 52/6/108 53/16/108 18/17/108
f 52/6/109 19/18/109 20/19/109
f 9/20/110 51/7/110 20/19/110
f 48/2/111 51/7/111 9/20/111
f 11/9/112 45/3/112 48/2/112
f 55/23/113 58/27/113 57/24/113
f 55/23/114 56/32/114 59/26/114
f 57/24/115 58/27/115 61/28/115
f 59/26/116 62/34/116 61/28/116
f 20/19/117 54/25/117 23/30/117
f 20/19/118 19/18/118 55/23/118
f 18/17/119 56/32/119 55/23/119
f 18/17/120 4/119/120 24/31/120
f 24/31/121 25/120/121 59/26/121
f 59/26/122 25/120/122 26/33/122
f 26/33/123 8/106/123 27/35/123
f 61/28/124 62/34/124 27/35/124
f 61/28/125 28/36/125 29/37/125
f 21/38/126 60/29/126 29/37/126
f 57/24/127 60/29/127 21/38/127
f 23/30/128 54/25/128 57/24/128
f 64/41/129 67/45/129 66/42/129
f 64/41/130 65/50/130 68/44/130
f 66/42/131 67/45/131 70/46/131
f 68/44/132 71/52/132 70/46/132
f 29/37/133 63/43/133 32/48/133
f 29/37/134 28/36/134 64/41/134
f 27/35/135 65/50/135 64/41/135
f 27/35/136 8/106/136 33/49/136
f 33/49/137 34/116/137 68/44/137
f 68/44/138 34/116/138 35/51/138
f 35/51/139 6/115/139 36/53/139
f 70/46/140 71/52/140 36/53/140
f 70/46/141 37/54/141 38/55/141
f 30/56/142 69/47/142 38/55/142
f 66/42/143 69/47/143 30/56/143
f 32/48/144 63/43/144 66/42/144
f 73/59/145 76/63/145 75/60/145
f 73/59/146 74/68/146 77/62/146
f 75/60/147 76/63/147 79/64/147
f 77/62/148 80/70/148 79/64/148
f 38/55/149 72/61/149 41/66/149
f 38/55/150 37/54/150 73/59/150
f 36/53/151 74/68/151 73/59/151
f 36/53/152 6/115/152 42/67/152
f 42/67/153 43/121/153 77/62/153
f 77/62/154 43/121/154 44/69/154
f 44/69/155 2/122/155 14/71/155
f 79/64/156 80/70/156 14/71/156
f 79/64/157 13/72/157 12/73/157
f 39/74/158 78/65/158 12/73/158
f 75/60/159 78/65/159 39/74/159
f 41/66/160 72/61/160 75/60/160
f 81/77/161 82/81/161 85/78/161
f 83/80/162 86/90/162 85/78/162
f 85/78/163 88/84/163 87/82/163
f 85/78/164 86/90/164 89/83/164
f 23/85/165 81/77/165 9/86/165
f 23/85/166 22/89/166 82/81/166
f 21/88/167 83/80/167 82/81/167
f 21/88/168 7/39/168 32/48/168
f 32/48/169 31/58/169 86/90/169
f 86/90/170 31/58/170 30/56/170
f 30/56/171 5/57/171 41/91/171
f 88/84/172 89/83/172 41/91/172
f 88/84/173 40/92/173 39/93/173
f 11/94/174 87/82/174 39/93/174
f 84/79/175 87/82/175 11/94/175
f 9/86/176 81/77/176 84/79/176
f 90/97/177 91/101/177 94/98/177
f 92/100/178 95/110/178 94/98/178
f 94/98/179 97/104/179 96/102/179
f 94/98/180 95/110/180 98/103/180
f 26/105/181 90/97/181 33/49/181
f 26/105/182 25/108/182 91/101/182
f 24/107/183 92/100/183 91/101/183
f 24/107/184 4/123/184 17/109/184
f 17/109/185 16/124/185 95/110/185
f 95/110/186 16/124/186 15/111/186
f 15/111/187 2/125/187 44/112/187
f 97/104/188 98/103/188 44/112/188
f 97/104/189 43/113/189 42/114/189
f 35/51/190 96/102/190 42/114/190
f 93/99/191 96/102/191 35/51/191
f 33/49/192 90/97/192 93/99/192
