# Blender v3.2.1 OBJ File: ''
# www.blender.org
mtllib player2.mtl
o Cube
v 1.000000 1.000000 -0.200000
v 1.000000 -1.000000 -0.200000
v 1.000000 1.000000 0.200000
v 1.000000 -1.000000 0.200000
v -1.000000 1.000000 -0.200000
v -1.000000 -1.000000 -0.200000
v -1.000000 1.000000 0.200000
v -1.000000 -1.000000 0.200000
vt 1.000000 0.662109
vt 0.666667 0.995443
vt 0.666667 0.662109
vt 0.333333 0.333333
vt 0.000000 0.000000
vt 0.333333 0.000000
vt 0.975911 0.965495
vt 0.642578 0.632161
vt 0.975911 0.632161
vt 0.969401 0.636719
vt 0.636068 0.970052
vt 0.636068 0.636719
vt 0.957682 0.967448
vt 0.624349 0.634115
vt 0.957682 0.634115
vt 0.333333 1.000000
vt 0.000000 0.666667
vt 0.333333 0.666667
vt 1.000000 0.995443
vt 0.000000 0.333333
vt 0.642578 0.965495
vt 0.969401 0.970052
vt 0.624349 0.967448
vt 0.000000 1.000000
vn 0.0000 1.0000 0.0000
vn 0.0000 0.0000 1.0000
vn -1.0000 0.0000 0.0000
vn 0.0000 -1.0000 0.0000
vn 1.0000 0.0000 0.0000
vn 0.0000 0.0000 -1.0000
usemtl Material
s off
f 5/1/1 3/2/1 1/3/1
f 3/4/2 8/5/2 4/6/2
f 7/7/3 6/8/3 8/9/3
f 2/10/4 8/11/4 6/12/4
f 1/13/5 4/14/5 2/15/5
f 5/16/6 2/17/6 6/18/6
f 5/1/1 7/19/1 3/2/1
f 3/4/2 7/20/2 8/5/2
f 7/7/3 5/21/3 6/8/3
f 2/10/4 4/22/4 8/11/4
f 1/13/5 3/23/5 4/14/5
f 5/16/6 1/24/6 2/17/6
