# Blender v3.1.2 OBJ File: ''
# www.blender.org
mtllib player.mtl
o Cube.001
v -0.385022 3.453021 -0.000001
v -0.385022 3.762976 0.228317
v -0.385022 3.762976 -0.000001
v -0.385022 3.453021 -1.000001
v 0.385022 1.453021 -1.000000
v -0.385022 1.453021 -1.000000
v 0.385022 3.453021 -0.000001
v 0.385022 1.453021 1.000000
v 0.385022 1.453021 -0.000000
v 0.385022 0.137418 -0.339080
v 0.385022 0.137418 -0.786965
v -0.385022 1.453021 -0.000000
v 0.385022 3.453021 0.999999
v -0.385022 1.453021 1.000000
v -0.385022 3.453021 0.999999
v -0.385022 0.153219 0.321411
v -0.385022 0.153219 0.720573
v 0.385022 3.453021 -1.000001
v 0.385022 3.762976 -0.228319
v -0.385022 0.137418 -0.339080
v -0.385022 0.137418 -0.786965
v 0.385022 0.153219 0.321411
v 0.385022 0.153219 0.720573
v 0.385022 3.762976 0.228317
v -0.385022 3.860938 0.393091
v 0.385022 3.860938 -0.000001
v 0.385022 3.762976 -0.000001
v -0.385022 3.762976 -0.228319
v 0.385022 4.380565 0.393091
v 0.385022 3.860938 0.393091
v -0.385022 4.380565 -0.000001
v -0.385022 3.860938 -0.000001
v -0.385022 3.860938 -0.393093
v 0.385022 3.860938 -0.393093
v -0.385022 4.501174 -0.229544
v -0.385022 4.380565 -0.393093
v -0.385022 4.501174 0.229542
v -0.385022 4.380565 0.393091
v 0.385022 4.380565 -0.393093
v 0.385022 4.380565 -0.000001
v 0.385022 4.501174 -0.000001
v -0.385022 4.501174 -0.000001
v 0.385022 4.501174 0.229542
v 0.385022 4.501174 -0.229544
vt 0.625000 0.625000
vt 0.625000 0.500000
vt 0.625000 0.625000
vt 0.625000 0.750000
vt 0.375000 1.000000
vt 0.375000 0.750000
vt 0.625000 0.125000
vt 0.375000 0.250000
vt 0.375000 0.125000
vt 0.375000 0.000000
vt 0.375000 0.125000
vt 0.375000 0.000000
vt 0.375000 0.625000
vt 0.625000 0.250000
vt 0.375000 0.500000
vt 0.625000 0.500000
vt 0.375000 0.625000
vt 0.375000 0.500000
vt 0.625000 0.000000
vt 0.625000 1.000000
vt 0.625000 1.000000
vt 0.375000 0.625000
vt 0.125000 0.750000
vt 0.125000 0.625000
vt 0.375000 0.750000
vt 0.125000 0.625000
vt 0.125000 0.625000
vt 0.125000 0.500000
vt 0.375000 0.250000
vt 0.375000 0.125000
vt 0.625000 0.250000
vt 0.625000 0.500000
vt 0.625000 0.000000
vt 0.625000 0.125000
vt 0.625000 0.125000
vt 0.625000 0.750000
vt 0.625000 0.250000
vt 0.625000 0.250000
vt 0.625000 0.625000
vt 0.625000 0.625000
vt 0.625000 0.750000
vt 0.625000 1.000000
vt 0.625000 0.750000
vt 0.625000 0.750000
vt 0.625000 0.500000
vt 0.625000 0.500000
vt 0.625000 1.000000
vt 0.625000 0.000000
vt 0.625000 0.125000
vt 0.875000 0.625000
vt 0.625000 0.625000
vt 0.875000 0.500000
vt 0.625000 0.250000
vt 0.625000 1.000000
vt 0.625000 0.000000
vt 0.625000 0.125000
vt 0.375000 1.000000
vt 0.625000 0.000000
vt 0.875000 0.750000
vn -1.0000 0.0000 0.0000
vn 0.0000 -0.0000 -1.0000
vn 1.0000 0.0000 0.0000
vn 0.0000 0.0000 1.0000
vn 0.0000 0.9279 -0.3727
vn 0.0000 -1.0000 0.0000
vn 0.0000 -0.1598 -0.9871
vn 0.0000 -0.2496 0.9684
vn 0.0000 -0.2102 0.9777
vn 0.0000 -0.2400 -0.9708
vn 0.0000 -0.8596 0.5110
vn 0.0000 0.9279 0.3727
vn 0.0000 -0.8596 -0.5110
vn 0.0000 0.8048 0.5935
vn 0.0000 1.0000 0.0000
vn 0.0000 0.8048 -0.5935
usemtl Material.001
s 1
f 1/1/1 2/2/1 3/3/1
f 4/4/2 5/5/2 6/6/2
f 7/7/3 8/8/3 9/9/3
f 5/10/3 10/11/3 11/12/3
f 1/1/1 6/6/1 12/13/1
f 13/14/4 14/15/4 8/8/4
f 15/16/1 12/13/1 14/15/1
f 14/15/1 16/17/1 17/18/1
f 18/19/3 9/9/3 5/10/3
f 4/4/5 19/20/5 18/21/5
f 20/22/6 11/23/6 10/24/6
f 5/5/7 21/25/7 6/6/7
f 12/13/8 10/24/8 9/26/8
f 6/6/1 20/22/1 12/13/1
f 17/18/6 22/27/6 23/28/6
f 14/15/9 23/29/9 8/8/9
f 8/8/3 22/30/3 9/9/3
f 9/26/10 16/17/10 12/13/10
f 24/31/11 25/32/11 2/2/11
f 19/33/3 26/34/3 27/35/3
f 7/7/3 24/31/3 13/14/3
f 1/1/1 28/36/1 4/4/1
f 7/7/3 19/33/3 27/35/3
f 13/14/12 2/2/12 15/16/12
f 26/34/3 29/37/3 30/38/3
f 25/32/1 31/39/1 32/40/1
f 28/36/1 32/40/1 33/41/1
f 2/2/1 32/40/1 3/3/1
f 24/31/3 26/34/3 30/38/3
f 28/36/13 34/42/13 19/20/13
f 31/39/1 35/43/1 36/44/1
f 29/37/14 37/45/14 38/46/14
f 33/41/2 39/47/2 34/42/2
f 34/48/3 40/49/3 26/34/3
f 30/38/4 38/46/4 25/32/4
f 32/40/1 36/44/1 33/41/1
f 41/50/15 35/43/15 42/51/15
f 43/52/15 42/51/15 37/45/15
f 31/39/1 37/45/1 42/51/1
f 40/49/3 43/53/3 29/37/3
f 36/44/16 44/54/16 39/47/16
f 40/49/3 44/55/3 41/56/3
f 1/1/1 15/16/1 2/2/1
f 4/4/2 18/21/2 5/5/2
f 7/7/3 13/14/3 8/8/3
f 5/10/3 9/9/3 10/11/3
f 1/1/1 4/4/1 6/6/1
f 13/14/4 15/16/4 14/15/4
f 15/16/1 1/1/1 12/13/1
f 14/15/1 12/13/1 16/17/1
f 18/19/3 7/7/3 9/9/3
f 4/4/5 28/36/5 19/20/5
f 20/22/6 21/25/6 11/23/6
f 5/5/7 11/57/7 21/25/7
f 12/13/8 20/22/8 10/24/8
f 6/6/1 21/25/1 20/22/1
f 17/18/6 16/17/6 22/27/6
f 14/15/9 17/18/9 23/29/9
f 8/8/3 23/29/3 22/30/3
f 9/26/10 22/27/10 16/17/10
f 24/31/11 30/38/11 25/32/11
f 19/33/3 34/48/3 26/34/3
f 7/7/3 27/35/3 24/31/3
f 1/1/1 3/3/1 28/36/1
f 7/7/3 18/19/3 19/33/3
f 13/14/12 24/31/12 2/2/12
f 26/34/3 40/49/3 29/37/3
f 25/32/1 38/46/1 31/39/1
f 28/36/1 3/3/1 32/40/1
f 2/2/1 25/32/1 32/40/1
f 24/31/3 27/35/3 26/34/3
f 28/36/13 33/41/13 34/42/13
f 31/39/1 42/51/1 35/43/1
f 29/37/14 43/53/14 37/45/14
f 33/41/2 36/44/2 39/47/2
f 34/48/3 39/58/3 40/49/3
f 30/38/4 29/37/4 38/46/4
f 32/40/1 31/39/1 36/44/1
f 41/50/15 44/59/15 35/43/15
f 43/52/15 41/50/15 42/51/15
f 31/39/1 38/46/1 37/45/1
f 40/49/3 41/56/3 43/53/3
f 36/44/16 35/43/16 44/54/16
f 40/49/3 39/58/3 44/55/3
