# Blender v3.1.2 OBJ File: ''
# www.blender.org
mtllib iceBlock.mtl
o Cube
v 0.439947 1.042333 -0.242937
v 1.138511 -1.000000 -1.125917
v 0.371092 1.033451 0.563232
v 1.099018 -1.000000 1.000000
v -0.404757 1.108635 -0.345414
v -0.923529 -1.000000 -1.081489
v -0.382458 0.887036 0.288350
v -1.016954 -0.977435 0.922438
v 0.841798 0.000000 -0.882704
v -1.000000 0.066247 0.700757
v 1.000000 0.000000 1.000000
v -0.911746 0.000000 -1.000000
v -0.851839 0.500000 0.728656
v 0.572185 0.528890 -0.711586
v 0.840049 0.500000 0.871301
v -0.744388 0.500000 -0.691163
v 1.000000 -0.505424 -1.000000
v 1.000000 -0.505424 1.000000
v -1.000000 -0.505424 -1.000000
v -1.000000 -0.505424 1.000000
v -0.887182 -0.253520 0.801031
v 0.936786 -0.253520 -0.867442
v 1.000000 -0.253520 1.000000
v -0.877615 -0.246650 -1.012938
v 0.772812 0.250000 -0.859431
v 0.860035 0.250000 0.943582
v -0.842936 0.250000 -0.895387
v -0.897590 0.250000 0.722338
v -0.570586 0.750000 0.495362
v 0.522331 0.773323 -0.617789
v 0.679790 0.750000 0.772189
v -0.582924 0.750000 -0.690820
v 0.005615 -1.000000 -1.301693
v 0.005615 1.000000 0.284718
v 0.005615 -1.000000 1.290199
v 0.005615 1.000000 -0.461794
v 0.005615 0.000000 -1.000000
v 0.005615 0.000000 1.000000
v 0.005615 0.500000 -1.000000
v 0.005615 0.500000 0.892789
v 0.005615 -0.505424 1.000000
v 0.005615 -0.505424 -1.000000
v 0.005615 -0.253520 1.000000
v 0.005615 -0.253520 -1.000000
v 0.005615 0.250000 1.000000
v 0.005615 0.250000 -1.000000
v 0.005615 0.750000 -0.736805
v 0.005615 0.750000 0.752951
v -1.280571 -1.000000 -0.000697
v 0.610064 1.000000 -0.000697
v -0.373424 0.928607 -0.078405
v 1.432686 -1.000000 -0.000697
v 1.000000 0.000000 -0.000697
v -1.000000 0.000000 -0.000697
v 1.000000 0.500000 -0.000697
v -0.813253 0.500000 -0.000697
v -1.000000 -0.505424 -0.000697
v 1.000000 -0.505424 -0.000697
v -1.000000 -0.253520 -0.000697
v 1.000000 -0.253520 -0.000697
v -0.913415 0.250000 -0.079298
v 1.000000 0.250000 -0.000697
v 1.000000 0.750000 -0.000697
v -0.695861 0.750000 -0.000697
v 0.005615 -1.000000 -0.000697
v 0.005615 1.156569 -0.000697
vt 0.875000 0.624913
vt 0.749298 0.750000
vt 0.749298 0.624913
vt 0.593750 0.874298
vt 0.625000 1.000000
vt 0.593750 1.000000
vt 0.593750 0.125087
vt 0.625000 0.250000
vt 0.593750 0.250000
vt 0.250702 0.624913
vt 0.375000 0.750000
vt 0.250702 0.750000
vt 0.625000 0.624913
vt 0.593750 0.750000
vt 0.593750 0.624913
vt 0.625000 0.375702
vt 0.593750 0.500000
vt 0.593750 0.375702
vt 0.468310 0.375702
vt 0.500000 0.500000
vt 0.468310 0.500000
vt 0.500000 0.624913
vt 0.468310 0.750000
vt 0.468310 0.624913
vt 0.468310 0.125087
vt 0.500000 0.250000
vt 0.468310 0.250000
vt 0.500000 0.874298
vt 0.468310 1.000000
vt 0.468310 0.874298
vt 0.531250 0.375702
vt 0.562500 0.500000
vt 0.531250 0.500000
vt 0.531250 0.624913
vt 0.562500 0.750000
vt 0.531250 0.750000
vt 0.531250 0.125087
vt 0.562500 0.250000
vt 0.531250 0.250000
vt 0.531250 0.874298
vt 0.562500 1.000000
vt 0.531250 1.000000
vt 0.436822 0.874298
vt 0.375000 1.000000
vt 0.375000 0.874298
vt 0.375000 0.125087
vt 0.436822 0.250000
vt 0.375000 0.250000
vt 0.436822 0.624913
vt 0.375000 0.624913
vt 0.375000 0.375702
vt 0.436822 0.500000
vt 0.375000 0.500000
vt 0.436822 1.000000
vt 0.436822 0.125087
vt 0.436822 0.750000
vt 0.436822 0.375702
vt 0.500000 1.000000
vt 0.500000 0.125087
vt 0.500000 0.750000
vt 0.500000 0.375702
vt 0.562500 0.375702
vt 0.562500 0.624913
vt 0.562500 0.125087
vt 0.562500 0.874298
vt 0.125000 0.750000
vt 0.125000 0.624913
vt 0.625000 0.750000
vt 0.625000 0.500000
vt 0.125000 0.500000
vt 0.593750 0.000000
vt 0.562500 0.000000
vt 0.531250 0.000000
vt 0.500000 0.000000
vt 0.468310 0.000000
vt 0.436822 0.000000
vt 0.375000 0.000000
vt 0.250702 0.500000
vt 0.625000 0.000000
vt 0.875000 0.500000
vt 0.749298 0.500000
vt 0.875000 0.750000
vt 0.625000 0.874298
vt 0.625000 0.125087
vn -0.5305 0.7432 0.4077
vn -0.1870 0.8888 0.4184
vn -0.8290 0.5425 -0.1357
vn 0.0000 -1.0000 0.0000
vn 0.5267 0.8215 0.2182
vn 0.1206 0.7345 -0.6677
vn 0.1409 -0.0068 -0.9900
vn 1.0000 0.0000 0.0000
vn -0.9843 -0.1299 -0.1199
vn -0.2175 0.0000 0.9761
vn 0.1510 0.5456 -0.8243
vn 0.9820 0.1206 0.1456
vn -0.9041 0.4202 -0.0781
vn -0.2937 0.0296 0.9554
vn -0.2865 0.4849 0.8263
vn -0.9453 -0.0947 -0.3123
vn 0.7300 0.6386 0.2434
vn 0.1471 0.2825 -0.9479
vn 0.0000 0.6198 0.7847
vn -1.0000 0.0000 0.0000
vn 0.0000 0.4657 -0.8850
vn -0.2822 0.0447 0.9583
vn -0.9512 0.2970 -0.0840
vn 0.8726 0.4885 0.0000
vn 0.1377 0.1294 -0.9820
vn 0.2992 0.6918 -0.6571
vn 0.8050 0.5746 0.1477
vn -0.9015 0.4233 -0.0899
vn -0.1247 0.7483 0.6515
vn 0.0238 0.3816 0.9240
vn -0.3696 0.2400 -0.8977
vn 0.0000 0.3860 -0.9225
vn 0.0000 0.2201 0.9755
vn 0.0000 -0.0499 -0.9988
vn 0.0000 0.0000 1.0000
vn -0.1983 0.5104 -0.8367
vn 0.2562 0.0513 0.9653
vn 0.0632 0.2819 0.9574
vn -0.0928 0.6516 -0.7529
vn 0.0146 0.0000 -0.9999
vn -0.0551 0.7067 -0.7054
vn 0.0000 -0.9997 0.0244
vn -0.0233 0.5767 0.8167
vn -0.0349 0.9967 -0.0739
vn 0.2507 0.9680 -0.0069
vn -0.6804 0.7319 -0.0360
vn 0.8098 0.3468 -0.4733
vn 0.9458 0.2768 -0.1697
vn -0.8702 0.4904 -0.0463
vn 0.9699 0.2434 0.0000
vn -0.9127 0.4087 0.0000
vn 0.9173 0.3179 -0.2398
vn -0.8465 0.4802 0.2300
vn -0.9301 0.3669 0.0184
vn 0.7435 0.6391 -0.1967
vn -0.9470 -0.2923 0.1333
vn 0.9974 0.0000 -0.0727
vn 0.5035 0.7854 -0.3601
vn -0.4914 0.8621 0.1241
vn 0.1575 0.9351 -0.3175
vn -0.2772 0.9554 0.1015
vn -0.2447 0.8553 0.4567
vn -0.2953 0.7757 0.5577
vn 0.5851 0.7856 0.2013
vn 0.1942 0.8167 -0.5434
vn 0.1389 0.0000 -0.9903
vn -0.9961 0.0000 -0.0880
vn -0.2672 0.2013 0.9424
vn 0.4537 0.0000 -0.8912
vn 0.9836 0.0000 0.1804
vn -0.9142 0.3949 -0.0912
vn -0.1733 0.3882 0.9052
vn 0.0000 -0.1621 0.9868
vn -0.8698 0.4934 0.0000
vn 0.9805 0.1963 0.0000
vn 0.0000 0.5208 -0.8537
vn -0.9009 0.4208 -0.1061
vn 0.1409 0.0000 -0.9900
vn -0.2938 0.0000 0.9559
vn -0.9494 0.3030 -0.0820
vn 0.9892 0.0000 0.1466
vn 0.1802 0.0000 -0.9836
vn 0.1906 0.3853 -0.9029
vn 0.9238 0.0000 0.3828
vn -0.8321 0.5376 -0.1362
vn -0.3635 0.4548 0.8131
vn -0.0249 0.4880 0.8725
vn -0.0537 0.7240 -0.6877
vn -0.1224 0.0000 -0.9925
vn 0.0659 0.0000 0.9978
vn 0.0000 0.1626 -0.9867
vn 0.0000 0.5061 0.8625
vn 0.0237 0.3940 0.9188
vn -0.3808 0.0000 -0.9247
vn 0.0000 0.0524 -0.9986
vn 0.0051 0.7399 -0.6726
vn -0.0221 -0.9998 0.0000
vn -0.4025 0.8075 0.4312
vn 0.2215 0.8550 0.4690
vn 0.0696 0.9446 -0.3207
vn -0.8824 0.4144 0.2228
vn 0.7908 0.0000 -0.6121
vn 0.9667 0.0000 -0.2558
vn -0.9429 0.3324 0.0186
vn -0.9902 0.0000 0.1393
vn 0.7526 0.6584 0.0000
vn -0.9994 0.0359 0.0000
vn -0.9821 0.1810 -0.0520
vn 0.8568 0.0000 -0.5156
vn 0.9266 0.3372 -0.1662
vn 0.6538 0.6755 -0.3411
vn -0.4663 0.8802 0.0883
vn -0.5161 0.6809 0.5197
usemtl Material
s off
f 51/1/1 34/2/1 66/3/1
f 48/4/2 7/5/2 29/6/2
f 64/7/3 5/8/3 32/9/3
f 65/10/4 4/11/4 35/12/4
f 50/13/5 31/14/5 63/15/5
f 36/16/6 30/17/6 47/18/6
f 44/19/7 9/20/7 22/21/7
f 53/22/8 23/23/8 60/24/8
f 59/25/9 12/26/9 24/27/9
f 38/28/10 21/29/10 43/30/10
f 46/31/11 14/32/11 25/33/11
f 62/34/12 15/35/12 26/36/12
f 61/37/13 16/38/13 27/39/13
f 45/40/14 13/41/14 28/42/14
f 41/43/15 8/44/15 35/45/15
f 49/46/16 19/47/16 6/48/16
f 58/49/17 4/11/17 52/50/17
f 33/51/18 17/52/18 2/53/18
f 41/43/19 21/29/19 20/54/19
f 59/25/20 19/47/20 57/55/20
f 60/24/8 18/56/8 58/49/8
f 42/57/21 22/21/21 17/52/21
f 38/28/22 28/42/22 10/58/22
f 54/59/23 27/39/23 12/26/23
f 53/22/24 26/36/24 11/60/24
f 37/61/25 25/33/25 9/20/25
f 47/18/26 14/32/26 39/62/26
f 55/63/27 31/14/27 15/35/27
f 64/7/28 16/38/28 56/64/28
f 40/65/29 29/6/29 13/41/29
f 31/14/30 40/65/30 15/35/30
f 32/9/31 39/62/31 16/38/31
f 27/39/32 37/61/32 12/26/32
f 26/36/33 38/28/33 11/60/33
f 24/27/34 42/57/34 19/47/34
f 23/23/35 41/43/35 18/56/35
f 6/48/36 42/57/36 33/51/36
f 18/56/37 35/45/37 4/11/37
f 15/35/38 45/40/38 26/36/38
f 16/38/39 46/31/39 27/39/39
f 11/60/35 43/30/35 23/23/35
f 24/27/40 37/61/40 44/19/40
f 5/8/41 47/18/41 32/9/41
f 65/10/42 8/66/42 49/67/42
f 3/68/43 48/4/43 31/14/43
f 50/13/44 34/2/44 3/68/44
f 1/69/45 66/3/45 50/13/45
f 6/70/4 65/10/4 49/67/4
f 29/71/46 56/64/46 13/72/46
f 30/17/47 55/63/47 14/32/47
f 25/33/48 53/22/48 9/20/48
f 28/73/49 54/59/49 10/74/49
f 22/21/50 58/49/50 17/52/50
f 21/75/51 57/55/51 20/76/51
f 17/52/52 52/50/52 2/53/52
f 8/77/53 57/55/53 49/46/53
f 28/73/54 56/64/54 61/37/54
f 14/32/55 62/34/55 25/33/55
f 10/74/56 59/25/56 21/75/56
f 22/21/57 53/22/57 60/24/57
f 30/17/58 50/13/58 63/15/58
f 2/53/4 65/10/4 33/78/4
f 7/79/59 64/7/59 29/71/59
f 5/80/60 66/3/60 36/81/60
f 51/1/61 7/82/61 34/2/61
f 48/4/62 34/83/62 7/5/62
f 64/7/63 51/84/63 5/8/63
f 65/10/4 52/50/4 4/11/4
f 50/13/64 3/68/64 31/14/64
f 36/16/65 1/69/65 30/17/65
f 44/19/66 37/61/66 9/20/66
f 53/22/8 11/60/8 23/23/8
f 59/25/67 54/59/67 12/26/67
f 38/28/68 10/58/68 21/29/68
f 46/31/69 39/62/69 14/32/69
f 62/34/70 55/63/70 15/35/70
f 61/37/71 56/64/71 16/38/71
f 45/40/72 40/65/72 13/41/72
f 41/43/73 20/54/73 8/44/73
f 49/46/74 57/55/74 19/47/74
f 58/49/75 18/56/75 4/11/75
f 33/51/76 42/57/76 17/52/76
f 41/43/10 43/30/10 21/29/10
f 59/25/77 24/27/77 19/47/77
f 60/24/8 23/23/8 18/56/8
f 42/57/78 44/19/78 22/21/78
f 38/28/79 45/40/79 28/42/79
f 54/59/80 61/37/80 27/39/80
f 53/22/81 62/34/81 26/36/81
f 37/61/82 46/31/82 25/33/82
f 47/18/83 30/17/83 14/32/83
f 55/63/84 63/15/84 31/14/84
f 64/7/85 32/9/85 16/38/85
f 40/65/86 48/4/86 29/6/86
f 31/14/87 48/4/87 40/65/87
f 32/9/88 47/18/88 39/62/88
f 27/39/89 46/31/89 37/61/89
f 26/36/90 45/40/90 38/28/90
f 24/27/40 44/19/40 42/57/40
f 23/23/35 43/30/35 41/43/35
f 6/48/91 19/47/91 42/57/91
f 18/56/92 41/43/92 35/45/92
f 15/35/93 40/65/93 45/40/93
f 16/38/94 39/62/94 46/31/94
f 11/60/35 38/28/35 43/30/35
f 24/27/95 12/26/95 37/61/95
f 5/8/96 36/16/96 47/18/96
f 65/10/97 35/12/97 8/66/97
f 3/68/98 34/83/98 48/4/98
f 50/13/99 66/3/99 34/2/99
f 1/69/100 36/81/100 66/3/100
f 6/70/4 33/78/4 65/10/4
f 29/71/101 64/7/101 56/64/101
f 30/17/102 63/15/102 55/63/102
f 25/33/103 62/34/103 53/22/103
f 28/73/104 61/37/104 54/59/104
f 22/21/57 60/24/57 58/49/57
f 21/75/105 59/25/105 57/55/105
f 17/52/106 58/49/106 52/50/106
f 8/77/107 20/76/107 57/55/107
f 28/73/108 13/72/108 56/64/108
f 14/32/109 55/63/109 62/34/109
f 10/74/20 54/59/20 59/25/20
f 22/21/110 9/20/110 53/22/110
f 30/17/111 1/69/111 50/13/111
f 2/53/4 52/50/4 65/10/4
f 7/79/112 51/84/112 64/7/112
f 5/80/113 51/1/113 66/3/113
